PathFileType	4	(X/Y/Z)	8_coords_data.trc
DataRate	CameraRate	NumFrames	NumMarkers	Units	OrigDataRate	OrigDataStartFrame	OrigNumFrames
30.0	30.0	8	21	m	30.0	29	48
Frame#	Time	THUMB_TIP	THUMB_IP	THUMB_MCP	THUMB_CMC	INDEX_TIP	INDEX_DIP	INDEX_PIP	INDEX_MCP	MIDDLE_TIP	MIDDLE_DIP	MIDDLE_PIP	MIDDLE_MCP	RING_TIP	RING_DIP	RING_PIP	RING_MCP	PINKY_TIP	PINKY_DIP	PINKY_PIP	PINKY_MCP	WRIST
X1	Y1	Z1	X2	Y2	Z2	X3	Y3	Z3	X4	Y4	Z4	X5	Y5	Z5	X6	Y6	Z6	X7	Y7	Z7	X8	Y8	Z8	X9	Y9	Z9	X10	Y10	Z10	X11	Y11	Z11	X12	Y12	Z12	X13	Y13	Z13	X14	Y14	Z14	X15	Y15	Z15	X16	Y16	Z16	X17	Y17	Z17	X18	Y18	Z18	X19	Y19	Z19	X20	Y20	Z20	X21	Y21	Z21
28	0.9333333333333333	-0.045253799438476565	-0.10348400115966797	1.0053300170898438	-0.0646302032470703	-0.0894540023803711	1.00997998046875	-0.08110070037841798	-0.06954979705810548	1.008739990234375	-0.08094029998779297	-0.04067779922485352	1.010989990234375	-0.06939450073242187	-0.14743299865722656	0.9808380126953125	-0.07264679718017578	-0.12778299713134766	0.9779739990234375	-0.07586430358886719	-0.10782099914550781	0.971822021484375	-0.07736920166015625	-0.07068080139160156	0.9642860107421874	-0.06873770141601562	-0.06922579956054688	0.9973699951171875	-0.06356549835205078	-0.08250849914550781	0.9980390014648437	-0.05574499893188477	-0.09661199951171875	0.985583984375	-0.05652460098266601	-0.064095703125	0.9618670043945312	-0.05505059814453125	-0.06735579681396485	1.0111599731445313	-0.04967340087890625	-0.07929090118408202	1.0040499877929687	-0.03889540100097656	-0.08969390106201172	0.992739013671875	-0.03988140106201172	-0.05851509857177734	0.9725289916992188	-0.00840503978729248	-0.11476699829101562	0.9851740112304688	-0.014439000129699706	-0.09632559967041016	0.9858759765625	-0.020617700576782225	-0.07991619873046875	0.986072021484375	-0.03140679931640625	-0.05458860015869141	0.9884959716796875	-0.07435890197753907	-0.002239029884338379	1.0178599853515624
29	0.9666666666666667	-0.03970220184326172	-0.1031729965209961	0.9999600219726562	-0.059106201171875	-0.08886990356445312	1.0063400268554688	-0.07753089904785156	-0.06950199890136718	1.0074099731445312	-0.07932250213623047	-0.04065430068969727	1.0106099853515624	-0.05643230056762695	-0.14370199584960938	0.9756090087890625	-0.06283819961547851	-0.12481800079345703	0.97285400390625	-0.06937229919433593	-0.10536799621582031	0.9670670166015625	-0.07657620239257812	-0.06842849731445312	0.9620679931640626	-0.06422760009765625	-0.06864450073242187	0.9957340087890625	-0.05743080139160156	-0.08074759674072265	0.993947998046875	-0.049776100158691404	-0.09293289947509766	0.97981201171875	-0.057171398162841794	-0.05965439987182617	0.9585289916992188	-0.051037899017333986	-0.06501799774169922	1.0094199829101562	-0.043674198150634766	-0.07596810150146484	1.0004199829101563	-0.033441600799560545	-0.08408390045166016	0.9858099975585938	-0.040528499603271484	-0.05238639831542969	0.9673380126953125	-0.001460600018501281	-0.10483100128173828	0.9762680053710937	-0.009264860153198242	-0.08702189636230469	0.977625	-0.0169685001373291	-0.07145369720458984	0.9784749755859375	-0.030558099746704103	-0.04774649810791016	0.9825809936523437	-0.07685829925537109	-0.001869420051574707	1.0180499877929687
30	1.0	-0.034345699310302735	-0.10271399688720703	0.998177001953125	-0.05241189956665039	-0.08648290252685546	1.00422998046875	-0.0713511962890625	-0.06718830108642578	1.0069299926757813	-0.0757406005859375	-0.03816799926757813	1.0102899780273438	-0.040302898406982424	-0.13564399719238282	0.9694199829101563	-0.05060499954223633	-0.118322998046875	0.966864013671875	-0.06125320053100586	-0.10016600036621094	0.9618049926757812	-0.0752759017944336	-0.06469180297851562	0.960551025390625	-0.0568202018737793	-0.06403780364990234	0.9933690185546875	-0.04856179809570312	-0.07530740356445312	0.9895679931640625	-0.04187680053710938	-0.08558219909667969	0.9730280151367188	-0.058068500518798825	-0.05300640106201172	0.9552930297851563	-0.04475360107421875	-0.05641370010375977	1.0024400024414062	-0.03606809997558594	-0.06774530029296875	0.9927100219726562	-0.026817499160766603	-0.07346829986572266	0.97647802734375	-0.041878501892089845	-0.04292409896850586	0.9617999877929687	0.006928309917449951	-0.08672760009765625	0.9612059936523437	-0.0034738199710845938	-0.07080370330810547	0.9645189819335938	-0.013852700233459473	-0.05677970123291016	0.967010009765625	-0.030843299865722658	-0.03605459976196289	0.9747659912109375	-0.0796708984375	0.000383466988801956	1.0182000122070312
31	1.0333333333333334	-0.030670400619506835	-0.10224199676513672	0.9965770263671875	-0.04595249938964844	-0.08268920135498047	1.001219970703125	-0.06435769653320313	-0.0626962013244629	1.005280029296875	-0.07102880096435547	-0.03343299865722656	1.009719970703125	-0.022142000198364258	-0.11964499664306641	0.96206201171875	-0.037099899291992186	-0.10521399688720703	0.9600560302734376	-0.05199639892578125	-0.09022579956054687	0.9558410034179687	-0.07320240020751953	-0.05912490081787109	0.9584600219726562	-0.04930670166015625	-0.05604990005493164	0.988552001953125	-0.039946800231933595	-0.06552010345458985	0.9817000122070313	-0.03405130004882812	-0.07275589752197266	0.963280029296875	-0.06002209854125977	-0.043611499786376955	0.9517319946289062	-0.03745320129394531	-0.04629449844360352	0.9935130004882813	-0.028584999084472658	-0.0542963981628418	0.9799739990234375	-0.021168800354003908	-0.05686980056762695	0.9636640014648438	-0.04552239990234375	-0.030377899169921875	0.955614990234375	0.011788999557495117	-0.05919129943847656	0.9417639770507813	-0.0012489000558853149	-0.04673989868164063	0.9482319946289063	-0.014464799880981444	-0.035921600341796874	0.953541015625	-0.034577499389648436	-0.02015169906616211	0.9654140014648438	-0.08196070098876954	0.003439949989318847	1.0169600219726562
32	1.0666666666666667	-0.02065460014343262	-0.09245230102539062	0.986719970703125	-0.03641719818115234	-0.07380950164794922	0.9941300048828124	-0.054751998901367185	-0.054931598663330077	1.001510009765625	-0.06424240112304687	-0.026015300750732422	1.0068900146484374	-0.006315820217132569	-0.09469000244140625	0.9474210205078125	-0.024848899841308593	-0.0852655029296875	0.947448974609375	-0.04451210021972656	-0.0750730972290039	0.9461890258789063	-0.07167400360107422	-0.051814399719238284	0.9559730224609375	-0.04188330078125	-0.04325870132446289	0.9787869873046875	-0.03174309921264649	-0.04997570037841797	0.9697260131835937	-0.030196500778198243	-0.05471920013427734	0.9475560302734375	-0.06438059997558594	-0.033080101013183594	0.9479940185546875	-0.03145260047912598	-0.03200130081176758	0.9819520263671875	-0.023417600631713865	-0.03532649993896484	0.9688920288085937	-0.02238599967956543	-0.0356151008605957	0.945698974609375	-0.053929500579833985	-0.016426700592041016	0.9497990112304687	0.0042744998931884765	-0.027925500869750975	0.9199439697265624	-0.009710929870605468	-0.019916000366210936	0.9298720092773437	-0.02403809928894043	-0.01300510025024414	0.9387579956054688	-0.04401079940795898	-0.002769220113754272	0.9569459838867187	-0.08286150360107422	0.007038929939270019	1.0166500244140626
33	1.1	-0.013541099548339843	-0.07969740295410156	0.978177978515625	-0.029206899642944335	-0.06179090118408203	0.9878930053710937	-0.04676649856567383	-0.04418989944458008	0.9973280029296875	-0.05849779891967773	-0.01536359977722168	1.00422998046875	-0.001512459993362426	-0.0714457015991211	0.9305479736328125	-0.021385499954223633	-0.06627010345458985	0.9336950073242187	-0.04272890090942383	-0.06019850158691406	0.9370809936523438	-0.07005380249023438	-0.04308969879150391	0.9546849975585937	-0.02755109977722168	-0.031358499526977536	0.974405029296875	-0.021577400207519533	-0.036303501129150394	0.9554390258789063	-0.032358600616455076	-0.03803099822998047	0.93285498046875	-0.06824089813232422	-0.023159900665283204	0.94660302734375	-0.024581899642944337	-0.015379199981689453	0.971176025390625	-0.021771400451660157	-0.0175221004486084	0.9494550170898437	-0.03219279861450195	-0.016593299865722656	0.9280390014648437	-0.06227090072631836	-0.004473050117492675	0.9468560180664063	-0.013323599815368653	-0.00144526994228363	0.9014180297851563	-0.02602129936218262	0.002876149892807007	0.915260009765625	-0.038420101165771485	0.0063695797920227054	0.9280859985351563	-0.05362810134887695	0.011614399909973145	0.951041015625	-0.08191519927978516	0.01291450023651123	1.0161199951171875
34	1.1333333333333333	-0.015456600189208984	-0.0738749008178711	0.974947021484375	-0.029203100204467772	-0.05485850143432617	0.98585302734375	-0.04533309936523437	-0.0359276008605957	0.99718798828125	-0.05731179809570312	-0.007139130115509033	1.0049600219726562	-0.002187180042266845	-0.056138801574707034	0.918885986328125	-0.02195509910583496	-0.05250019836425781	0.9251840209960938	-0.042924701690673826	-0.04801169967651367	0.9319739990234375	-0.06769599914550781	-0.03384120178222656	0.9554719848632812	0.0028614799976348867	-0.027958099365234374	0.9487039794921875	-0.012796099662780763	-0.027599300384521484	0.9332429809570313	-0.03763339996337891	-0.025328899383544923	0.9232319946289063	-0.068197998046875	-0.013575200080871583	0.9475020141601562	-0.00375957989692688	-0.00780990982055664	0.94722998046875	-0.01729199981689453	-0.006306029796600342	0.9311090087890626	-0.04026919937133789	-0.0032707099914550783	0.920531005859375	-0.06304209899902344	0.005181449890136719	0.947323974609375	-0.020961299896240234	0.017565599441528322	0.8973209838867188	-0.03297449874877929	0.019596500396728514	0.9127249755859375	-0.04397520065307617	0.020900999069213867	0.926698974609375	-0.056990798950195314	0.022622499465942383	0.9510419921875	-0.08156790161132813	0.01984550094604492	1.0178800048828125
35	1.1666666666666667	-0.019918500900268556	-0.06943879699707031	0.9731580200195312	-0.03140460014343262	-0.049468299865722654	0.985426025390625	-0.04536050033569336	-0.029477100372314453	0.9986849975585937	-0.05573400115966797	-0.00037423199415206903	1.0073599853515625	-0.006663529872894287	-0.0444385986328125	0.9050640258789062	-0.024288000106811522	-0.04113779830932617	0.9166160278320312	-0.04249589920043945	-0.03699980163574219	0.9289530029296875	-0.06313740158081055	-0.02493320083618164	0.9573569946289062	0.003788510084152221	-0.01989539909362793	0.9006199951171875	-0.017773500442504885	-0.017259099960327148	0.907427001953125	-0.04289229965209961	-0.013631400108337402	0.9178300170898438	-0.065091796875	-0.004657949924468994	0.9496329956054688	-0.0025034101009368892	0.0029698600769042967	0.8980640258789062	-0.02230590057373047	0.00644851016998291	0.9061649780273437	-0.04480889892578125	0.009910900115966797	0.91806298828125	-0.06140589904785156	0.014309399604797364	0.9492470092773437	-0.02808880043029785	0.033582000732421874	0.8958579711914062	-0.03794369888305664	0.03369670104980469	0.9131640014648438	-0.04705630111694336	0.033217498779296875	0.9284000244140626	-0.05712620162963867	0.03209140014648437	0.9533060302734375	-0.08093620300292968	0.026045000076293946	1.020989990234375
